<svg xmlns="http://www.w3.org/2000/svg" xmlns:xlink="http://www.w3.org/1999/xlink" viewBox="0,0,256,256" width="480px" height="480px" fill-rule="nonzero"><g fill="#000000" fill-rule="nonzero" stroke="none" stroke-width="1" stroke-linecap="butt" stroke-linejoin="miter" stroke-miterlimit="10" stroke-dasharray="" stroke-dashoffset="0" font-family="none" font-weight="none" font-size="none" text-anchor="none" style="mix-blend-mode: normal"><path d="M0,256v-256h256v256z" id="bgRectangle"></path></g><g fill="#fdfeff" fill-rule="nonzero" stroke="none" stroke-width="1" stroke-linecap="butt" stroke-linejoin="miter" stroke-miterlimit="10" stroke-dasharray="" stroke-dashoffset="0" font-family="none" font-weight="none" font-size="none" text-anchor="none" style="mix-blend-mode: normal"><g transform="translate(-5.45444,-0.7506) scale(5.33333,5.33333)"><path d="M24,18.2c0.7,0 0.9,0.2 0.9,0.2l0.4,-1.7c0,0 0.4,1.5 0.4,2.8c0.2,1.1 2.2,0.4 3.9,0c1.8,-0.4 2.4,-3.5 2.4,-3.5h16c0,0 -9.4,3.5 -7,10c0,0 -14.8,-2 -17,7v0c-2.2,-9 -17,-7 -17,-7c2.4,-6.5 -7,-10 -7,-10h16c0,0 0.6,3.1 2.3,3.5c1.7,0.4 3.9,1.1 3.9,0c0.2,-1.1 0.4,-2.8 0.4,-2.8l0.4,1.7c0.1,0 0.4,-0.2 1,-0.2v0z"></path></g></g></svg>